PathFileType	3	(X/Y/Z)	D:\minhoCalibration\240510\subject1_KPNP\preferred\preferred15.trc
DataRate	CameraRate	NumFrames	NumMarkers	Units	OrigDataRate	OrigDataStartFrame	OrigNumFrames
200.0	200.0	30	10	mm	200.0	440	228	
Frame#	Time	Left_Ankle_Outer1			Left_Ankle_Inner1			Left_Knee_Outer1			Left_Knee_Inner1			Left_Wrist1			Right_Wrist1			Right_Knee_Inner1			Right_Knee_Outer1			Right_Ankle_Inner1			Right_Ankle_Outer1			
		X1	Y1	Z1	X2	Y2	Z2	X3	Y3	Z3	X4	Y4	Z4	X5	Y5	Z5	X6	Y6	Z6	X7	Y7	Z7	X8	Y8	Z8	X9	Y9	Z9	X10	Y10	Z10	
440	2.19	-475.75119	152.07082	-586.17957	-508.68164	167.24825	-540.37604	-326.4216	581.27002	-549.96497	-409.43814	564.68921	-481.35635	-361.44077	1043.7487	-747.23871	-613.11829	1147.3993	-492.11481	-457.73724	844.69812	-161.04323	-557.53357	921.38287	-128.04735	-765.56012	776.09607	-454.98203	-866.5459	795.4505	-410.28549
441	2.195	-479.32364	152.0793	-584.07135	-510.9964	167.32364	-537.2702	-328.04855	580.3302	-553.13745	-408.7803	564.51489	-481.26859	-368.89478	1042.4304	-752.89026	-606.22577	1152.2948	-486.62943	-435.24457	858.02313	-157.99174	-527.11505	941.03601	-121.1012	-773.57367	790.10687	-420.52899	-868.88959	816.65656	-366.04474
442	2.2	-483.0979	151.8343	-581.39801	-513.49402	167.52632	-533.52344	-330.06039	579.46887	-555.85858	-407.89047	563.17896	-484.37436	-376.3667	1040.7396	-757.90387	-598.7984	1157.3469	-482.5191	-413.71729	870.62592	-156.14288	-497.06299	959.62604	-116.68746	-779.7804	804.11249	-381.09888	-868.5943	836.90741	-320.47742
443	2.205	-486.97147	151.56686	-578.3631	-516.09418	167.03001	-529.66302	-332.45908	578.55676	-557.90631	-409.2576	564.03455	-481.22546	-383.90161	1038.4954	-761.98773	-593.39465	1162.978	-478.52582	-393.30698	882.64301	-155.51601	-467.46191	976.72394	-115.83842	-786.12665	817.01263	-340.23688	-865.716	857.77924	-271.05334
444	2.21	-490.96957	150.96851	-574.73975	-518.90344	166.65031	-525.49677	-334.72891	577.70911	-559.57361	-410.03641	562.99805	-482.38379	-391.38031	1035.7733	-765.49139	-587.1236	1168.5483	-475.30139	-374.61792	893.80273	-155.40385	-439.60715	992.61591	-116.52009	-785.79187	830.21954	-294.23611	-858.9281	878.10919	-219.78577
445	2.215	-494.98978	150.43687	-571.05963	-522.21393	166.40958	-521.44733	-337.82471	576.75415	-560.07062	-412.35175	562.70978	-480.59012	-398.79126	1032.652	-767.84821	-580.36969	1173.8066	-472.57819	-357.34241	904.52936	-155.92177	-413.3779	1006.8807	-119.73302	-785.59692	842.32141	-246.8036	-848.18457	897.76648	-167.8371
446	2.22	-499.28537	149.97874	-567.14465	-525.70801	165.96352	-516.90924	-341.27963	575.5719	-559.81299	-414.29456	562.68158	-479.07016	-406.39944	1028.8877	-769.42761	-574.23212	1178.7544	-470.49753	-341.6369	914.81512	-156.85605	-389.66849	1019.6025	-124.49662	-783.59491	854.41791	-194.39403	-832.31927	917.43256	-115.45124
447	2.225	-503.77673	149.53786	-563.22083	-529.44379	165.20934	-512.56494	-344.0849	574.82452	-559.09174	-415.73764	562.74072	-477.88757	-413.62509	1025.2914	-770.40509	-568.69208	1183.658	-468.71725	-326.91687	924.28589	-158.41122	-368.58316	1030.6611	-130.54204	-774.10321	867.242	-139.73055	-812.24017	937.31622	-61.229397
448	2.23	-508.71152	149.2961	-559.19006	-533.53601	164.75929	-508.24261	-347.65146	573.38037	-557.20459	-418.61423	562.26715	-475.44669	-420.30365	1021.8971	-771.04065	-563.23175	1188.0714	-467.88184	-314.30426	933.20483	-159.93098	-350.73163	1040.3619	-137.10783	-759.71118	880.23547	-83.294182	-787.45166	957.06329	-7.4104929
449	2.235	-513.77521	149.02808	-555.27173	-537.71783	164.40956	-503.82294	-350.46878	572.59772	-554.87598	-421.7193	561.02307	-473.98145	-426.7757	1018.5023	-771.02667	-558.34967	1191.964	-467.62271	-303.54459	941.45782	-161.67966	-336.32837	1048.8405	-143.75352	-739.17078	893.95575	-25.858561	-757.10999	976.89417	45.750488
450	2.24	-518.78479	148.89108	-551.67346	-542.02002	163.96043	-499.86185	-353.23062	571.47064	-552.24042	-424.18149	561.10541	-470.81433	-432.66119	1015.3999	-770.17737	-554.02246	1195.1521	-468.07782	-295.11908	948.69666	-163.1145	-325.5535	1056.3623	-149.86362	-713.07294	908.30774	30.724327	-721.28967	997.19855	96.327019
451	2.245	-523.70282	148.60938	-548.26862	-546.26788	163.64519	-496.32343	-356.0849	570.26007	-549.05377	-427.05112	560.06195	-468.40833	-437.94611	1012.5555	-769.22534	-550.44165	1197.5785	-469.20947	-289.61099	955.74084	-164.2739	-318.1843	1062.9016	-155.29123	-680.82111	922.78839	85.385231	-681.013	1017.0338	145.29007
452	2.25	-527.97906	148.30486	-545.31561	-550.15814	162.99292	-493.28397	-358.37189	569.14252	-545.92035	-429.60852	559.48096	-465.46109	-442.17593	1010.1041	-767.86639	-547.80969	1199.356	-470.66251	-286.7449	961.83386	-165.48723	-313.79395	1068.3942	-159.70816	-644.02301	936.83813	126.80596	-634.81628	1036.014	189.99449
453	2.255	-531.948	147.69043	-542.58813	-553.68762	162.21896	-490.35184	-360.65488	568.00714	-542.67285	-431.96176	559.25861	-461.97653	-445.25833	1008.1461	-766.25659	-546.14484	1200.6691	-472.21704	-286.23868	967.31622	-165.79762	-312.11917	1073.0658	-162.90915	-599.73523	951.61554	170.48058	-583.75653	1054.5299	230.87547
454	2.26	-535.44092	146.9366	-540.22827	-556.82111	161.03296	-488.00214	-363.14075	566.52502	-539.19897	-434.51498	558.38782	-459.0051	-447.42709	1006.397	-763.54492	-545.73901	1201.9657	-473.53964	-288.81107	972.75604	-165.10217	-313.03558	1076.9823	-164.22444	-550.54694	966.56219	215.92809	-528.66272	1071.8538	265.96982
455	2.265	-538.11249	145.89584	-538.40637	-559.55078	159.95404	-486.15698	-364.45508	565.88409	-536.49725	-437.46661	557.11603	-455.90863	-448.25653	1004.886	-761.06689	-546.65466	1203.0717	-475.06284	-293.54681	977.46808	-163.6021	-316.18008	1079.9429	-163.34119	-495.21036	982.23572	262.37485	-469.4856	1088.2373	293.71198
456	2.27	-540.22089	144.93533	-537.13104	-561.95264	158.63441	-484.84903	-366.68582	564.51691	-533.0014	-439.64301	555.65125	-453.68628	-448.15527	1003.4963	-758.4234	-547.93304	1203.853	-476.82632	-300.20645	981.17535	-160.59975	-321.94131	1082.514	-160.3927	-437.66394	997.09851	286.05994	-407.88498	1102.3185	312.47156
457	2.275	-542.06482	143.68532	-536.21771	-564.23566	157.30745	-484.34869	-368.31091	563.70026	-529.4035	-441.98941	554.44208	-450.69949	-447.18655	1002.493	-755.0816	-550.35779	1203.8065	-476.49011	-308.24942	984.27216	-156.36472	-330.47043	1086.1331	-156.23555	-379.27173	1006.7146	302.44553	-346.16141	1114.2253	321.36435
458	2.28	-543.33344	142.27971	-535.93951	-565.76562	155.57816	-484.03592	-369.36331	562.4895	-526.25134	-444.28647	552.8703	-447.84576	-445.48431	1001.6296	-751.28546	-553.07147	1203.9006	-474.65247	-316.40472	987.18512	-151.5061	-340.05545	1090.8328	-152.01746	-323.73676	1012.2367	307.68417	-287.85516	1122.606	315.51776
459	2.285	-544.3139	140.74872	-536.01196	-567.3064	153.87589	-484.4686	-370.45963	561.47296	-522.30011	-446.26523	551.26447	-444.87741	-443.38593	1001.0855	-746.31384	-555.98999	1203.5479	-472.02744	-323.6615	989.84772	-146.68562	-349.14313	1096.3403	-146.57034	-300.38336	1017.5005	302.53033	-263.18533	1123.8406	310.26147
460	2.29	-545.099	139.14708	-536.4754	-568.64093	152.27107	-485.15289	-370.6214	560.00061	-518.94849	-448.24213	549.43268	-441.66086	-440.66415	1000.7615	-740.85645	-559.06665	1203.241	-467.5921	-326.81036	990.50269	-143.07794	-354.31848	1104.3145	-141.62349	-299.07367	1018.918	301.12943	-253.89815	1126.7266	311.64709
461	2.295	-545.30902	137.69508	-537.35944	-569.69446	150.52905	-486.41431	-370.79828	558.77161	-514.96057	-449.65942	547.74219	-437.61719	-437.47919	1000.6318	-734.6416	-561.99518	1203.1405	-463.16425	-321.11536	992.96362	-140.73657	-351.01169	1111.4146	-139.59795	-303.3244	1019.2014	303.9472	-249.39406	1129.3237	312.38007
462	2.3	-544.86298	136.59398	-538.34253	-569.97998	149.28452	-487.58145	-370.95389	557.44055	-510.57578	-450.3692	545.31995	-435.1611	-434.18604	1000.2936	-727.85901	-564.78412	1203.2094	-458.85199	-310.43594	1001.0394	-140.07384	-340.45038	1113.6462	-139.89729	-305.76144	1018.4086	306.28265	-248.03883	1130.6245	312.41058
463	2.305	-543.57776	135.92448	-539.20129	-569.64233	148.16997	-488.9332	-370.89606	556.61157	-505.61298	-451.31659	543.3822	-431.33685	-430.75854	999.74152	-720.7937	-568.0791	1203.5955	-453.8591	-299.69855	1009.4224	-142.67896	-331.15878	1113.6155	-139.43159	-305.12219	1012.486	305.07199	-247.52928	1130.2192	313.05075
464	2.31	-541.71912	135.68042	-539.80261	-568.95123	147.72389	-490.19699	-370.71298	556.35193	-500.09793	-451.66864	541.49518	-428.41974	-427.57809	998.98572	-713.79144	-571.48651	1204.0966	-451.19418	-292.66119	1017.9733	-147.01071	-325.35617	1113.4633	-139.96024	-305.4422	1005.6641	303.26059	-246.32265	1126.9117	314.84613
465	2.315	-539.26196	135.78825	-540.21179	-567.76202	147.44313	-491.28629	-371.21298	556.53168	-493.32651	-452.24289	540.19476	-424.66568	-424.58405	998.02356	-707.0954	-575.95618	1204.2847	-446.19785	-293.20645	1022.1778	-146.2	-325.67813	1115.4753	-139.91824	-311.23193	1001.3119	300.76208	-248.5484	1118.3741	316.93857
466	2.32	-536.43066	136.2231	-540.62689	-566.22559	147.4045	-492.16315	-370.95938	557.46802	-486.75449	-453.03885	540.16559	-420.12949	-421.86893	996.96515	-700.67719	-580.37317	1204.2969	-443.78778	-295.03409	1021.4948	-143.47401	-326.48575	1117.2369	-138.35648	-315.72345	995.5495	301.40875	-253.33842	1106.0233	317.52826
467	2.325	-533.73059	136.88113	-540.52197	-564.59137	147.50932	-493.14795	-370.80179	558.55432	-479.9144	-454.63004	540.75085	-414.84717	-419.3027	995.93445	-694.57843	-584.98602	1204.373	-440.5845	-297.25006	1020.9937	-142.48001	-328.27203	1118.3468	-136.36151	-325.68454	992.25653	301.36823	-256.46744	1093.9061	320.7655
468	2.33	-530.84485	137.94772	-540.49487	-562.84473	148.04181	-493.7323	-370.38303	559.76111	-473.13907	-456.20752	541.92413	-410.17493	-417.09857	994.94641	-688.60199	-589.18677	1204.0808	-438.65015	-298.39948	1020.8391	-143.75053	-332.03549	1118.7567	-134.34998	-328.05438	983.95642	302.38593	-261.29266	1080.9545	317.55151
469	2.335	-528.23779	139.117	-540.21625	-561.42133	148.98294	-493.92529	-369.99826	560.91608	-466.51013	-458.05347	542.93805	-406.38614	-415.06689	994.09021	-682.92816	-593.14526	1203.885	-436.99405	-298.69901	1021.1147	-145.86627	-335.8826	1118.2534	-132.68721	-330.69122	975.01935	301.97195	-263.8432	1070.8571	320.18372
